<?xml version="1.0" encoding="utf-8"?>
<!-- Generator: Adobe Illustrator 25.1.0, SVG Export Plug-In . SVG Version: 6.00 Build 0)  -->
<svg version="1.1" id="Layer_1" xmlns="http://www.w3.org/2000/svg" xmlns:xlink="http://www.w3.org/1999/xlink" x="0px" y="0px"
	 viewBox="0 0 111 37" style="enable-background:new 0 0 111 37;" xml:space="preserve">
<style type="text/css">
	.st0{fill-rule:evenodd;clip-rule:evenodd;fill:url(#SVGID_1_);}
	.st1{fill:url(#SVGID_2_);}
	.st2{fill:url(#SVGID_3_);}
	.st3{fill:url(#SVGID_4_);}
	.st4{fill:url(#SVGID_5_);}
	.st5{fill:url(#SVGID_6_);}
	.st6{fill:url(#SVGID_7_);}
	.st7{fill:url(#SVGID_8_);}
	.st8{fill:url(#SVGID_9_);}
	.st9{fill:url(#SVGID_10_);}
	.st10{fill:url(#SVGID_11_);}
	.st11{fill:url(#SVGID_12_);}
	.st12{fill:url(#SVGID_13_);}
</style>
<g>
	
		<radialGradient id="SVGID_1_" cx="144.7171" cy="-853.89" r="18.3049" gradientTransform="matrix(1 0 0 -1 -54.14 -835.39)" gradientUnits="userSpaceOnUse">
		<stop  offset="0.57" style="stop-color:#130C0E"/>
		<stop  offset="0.8" style="stop-color:#130C0E"/>
		<stop  offset="1" style="stop-color:#130C0E"/>
	</radialGradient>
	<path class="st0" d="M74.3,36.9c5.8-2.8,12.9-10.3,13.9-12c2-3.4,8.1-3.1,12.2-2.2c2.9,0.6,5,2.1,8.3,4c-2.9-3.1-5.9-7.7-16.6-8.8
		h-0.1l-0.2-1.7h0.1c3.6,1.2,7,1.4,11.5-5.1c-12.7,10.9-16-12.6-31,8.2c3.8-3.5,7-4.9,9.8-5.3C93.3,12.9,77.8,34.5,74.3,36.9
		L74.3,36.9z M84.9,3.5L85,3.4l0,0l4.4-3.3l5.6,0.4L93.4,2c-0.9-0.3-1.9-0.3-2.9,0c-0.9,0.2-2.3,0.7-2.8,1.7l-2.4-0.1v2.4
		c0.7,1.1-1.1,1.3-0.4,0.1V3.4L84.9,3.5z M88.2,4.1c0.1-1.3,4.1-2.3,5.2-1.6l1.2,1.8h-0.1c-0.8-0.7-1.8-1.1-2.8-1
		c-1.6,0.1-3,0.9-3.8,2.2l0,0L88.2,4.1L88.2,4.1z M91.7,4.3c1.8,0,3.3,1.5,3.3,3.3c0,1.8-1.5,3.3-3.3,3.3c-1.8,0-3.3-1.5-3.3-3.3
		C88.4,5.8,89.8,4.3,91.7,4.3C91.7,4.3,91.7,4.3,91.7,4.3L91.7,4.3z"/>
	
		<radialGradient id="SVGID_2_" cx="59.1321" cy="-859.5116" r="3.2781" gradientTransform="matrix(1 0 0 -1 -54.14 -835.39)" gradientUnits="userSpaceOnUse">
		<stop  offset="0.57" style="stop-color:#130C0E"/>
		<stop  offset="0.8" style="stop-color:#130C0E"/>
		<stop  offset="1" style="stop-color:#130C0E"/>
	</radialGradient>
	<path class="st1" d="M2.3,21.5c0-0.3,0.1-0.6,0.3-0.8c0.2-0.2,0.5-0.3,0.8-0.3h4.1c0.1,0.1,0.1,0.2,0.2,0.4c0,0.2,0.1,0.3,0.1,0.5
		c0,0.2,0,0.5-0.2,0.7C7.3,22,7.1,22.1,7,22.1H4.4v1.1h2.8c0.1,0.1,0.1,0.2,0.1,0.3c0,0.1,0.1,0.3,0.1,0.5c0,0.2,0,0.5-0.2,0.7
		c-0.1,0.1-0.3,0.2-0.5,0.2H4.4v1.3h3.2c0.1,0.1,0.1,0.2,0.2,0.4c0,0.2,0.1,0.3,0.1,0.5c0,0.2,0,0.5-0.2,0.7
		c-0.1,0.1-0.3,0.2-0.5,0.2H3.4c-0.6,0.1-1.1-0.4-1.1-1c0-0.1,0-0.1,0-0.2V21.5z"/>
	
		<radialGradient id="SVGID_3_" cx="65.8421" cy="-859.4907" r="3.4833" gradientTransform="matrix(1 0 0 -1 -54.14 -835.39)" gradientUnits="userSpaceOnUse">
		<stop  offset="0.57" style="stop-color:#130C0E"/>
		<stop  offset="0.8" style="stop-color:#130C0E"/>
		<stop  offset="1" style="stop-color:#130C0E"/>
	</radialGradient>
	<path class="st2" d="M11.2,24.9c-0.4-0.1-0.7-0.2-1-0.4c-0.3-0.1-0.5-0.3-0.8-0.5c-0.2-0.2-0.4-0.4-0.5-0.6
		c-0.1-0.3-0.2-0.6-0.2-0.9c0-0.7,0.3-1.3,0.8-1.7c0.7-0.5,1.5-0.7,2.2-0.6c0.3,0,0.7,0,1,0.1c0.3,0,0.5,0.1,0.8,0.2
		c0.2,0.1,0.4,0.2,0.5,0.4c0.1,0.2,0.2,0.4,0.2,0.6c0,0.2,0,0.4-0.1,0.5c-0.1,0.1-0.2,0.3-0.4,0.4c-0.2-0.1-0.5-0.2-0.7-0.3
		c-0.3-0.1-0.7-0.1-1-0.1c-0.3,0-0.6,0-0.8,0.2c-0.2,0.1-0.3,0.2-0.3,0.4c0,0.1,0.1,0.2,0.2,0.3c0.1,0.1,0.3,0.2,0.5,0.2l0.6,0.2
		c0.7,0.2,1.3,0.5,1.8,0.9c0.4,0.4,0.6,1,0.6,1.5c0,0.7-0.3,1.3-0.8,1.7c-0.7,0.5-1.6,0.7-2.4,0.7c-0.3,0-0.7,0-1-0.1
		c-0.3-0.1-0.6-0.2-0.9-0.3c-0.2-0.1-0.4-0.3-0.6-0.5c-0.1-0.2-0.2-0.4-0.2-0.6c0-0.2,0.1-0.4,0.2-0.6c0.1-0.2,0.3-0.3,0.5-0.4
		c0.3,0.2,0.5,0.4,0.8,0.5c0.3,0.1,0.7,0.2,1.1,0.2c0.3,0,0.6,0,0.8-0.2c0.2-0.1,0.2-0.3,0.2-0.4c0-0.2-0.1-0.3-0.2-0.4
		c-0.2-0.1-0.4-0.2-0.6-0.2L11.2,24.9z"/>
	
		<radialGradient id="SVGID_4_" cx="72.4121" cy="-859.505" r="3.49" gradientTransform="matrix(1 0 0 -1 -54.14 -835.39)" gradientUnits="userSpaceOnUse">
		<stop  offset="0.57" style="stop-color:#130C0E"/>
		<stop  offset="0.8" style="stop-color:#130C0E"/>
		<stop  offset="1" style="stop-color:#130C0E"/>
	</radialGradient>
	<path class="st3" d="M15.3,22.1c-0.1-0.1-0.1-0.2-0.2-0.4c-0.1-0.2-0.1-0.3-0.1-0.5c0-0.2,0.1-0.5,0.2-0.7c0.2-0.1,0.4-0.2,0.6-0.2
		h5.4c0.1,0.1,0.1,0.2,0.2,0.4c0,0.2,0.1,0.3,0.1,0.5c0,0.2-0.1,0.5-0.2,0.7c-0.2,0.1-0.4,0.2-0.6,0.2h-1.5v5.7
		c-0.1,0-0.3,0.1-0.4,0.1h-0.6c-0.2,0-0.3,0-0.5,0c-0.1,0-0.3-0.1-0.4-0.2c-0.1-0.1-0.2-0.2-0.2-0.3c-0.1-0.2-0.1-0.3-0.1-0.5v-4.8
		L15.3,22.1z"/>
	
		<radialGradient id="SVGID_5_" cx="79.9221" cy="-859.5352" r="3.6101" gradientTransform="matrix(1 0 0 -1 -54.14 -835.39)" gradientUnits="userSpaceOnUse">
		<stop  offset="0.57" style="stop-color:#130C0E"/>
		<stop  offset="0.8" style="stop-color:#130C0E"/>
		<stop  offset="1" style="stop-color:#130C0E"/>
	</radialGradient>
	<path class="st4" d="M29.1,25.1c0,0.4-0.1,0.8-0.2,1.2c-0.1,0.4-0.4,0.7-0.7,0.9c-0.3,0.3-0.6,0.5-1,0.6C26.8,28,26.3,28,25.8,28
		c-0.5,0-0.9-0.1-1.4-0.2c-0.4-0.1-0.7-0.3-1.1-0.6c-0.3-0.3-0.5-0.6-0.6-0.9c-0.2-0.4-0.2-0.8-0.2-1.2v-4.7l0.4-0.1
		c0.2,0,0.4,0,0.6,0c0.2,0,0.3,0,0.5,0c0.1,0,0.3,0.1,0.4,0.2c0.1,0.1,0.2,0.2,0.2,0.3c0,0.2,0.1,0.3,0.1,0.5V25
		c0,0.3,0.1,0.7,0.3,0.9c0.5,0.5,1.2,0.5,1.7,0c0.2-0.2,0.3-0.6,0.3-0.9v-4.7l0.4-0.1c0.2,0,0.4,0,0.6,0c0.2,0,0.3,0,0.5,0
		c0.1,0,0.3,0.1,0.4,0.2c0.1,0.1,0.2,0.2,0.2,0.3c0.1,0.2,0.1,0.3,0.1,0.5L29.1,25.1z"/>
	
		<radialGradient id="SVGID_6_" cx="88.2768" cy="-859.485" r="3.7077" gradientTransform="matrix(1 0 0 -1 -54.14 -835.39)" gradientUnits="userSpaceOnUse">
		<stop  offset="0.57" style="stop-color:#130C0E"/>
		<stop  offset="0.8" style="stop-color:#130C0E"/>
		<stop  offset="1" style="stop-color:#130C0E"/>
	</radialGradient>
	<path class="st5" d="M33.5,28H33h-0.6l-0.6-0.1c-0.2,0-0.4-0.1-0.5-0.2c-0.4-0.1-0.7-0.5-0.7-0.9v-5.7c0-0.1,0-0.3,0.1-0.4
		c0.1-0.1,0.2-0.2,0.4-0.2c0.4-0.1,0.7-0.2,1.1-0.2c0.4,0,0.7,0,1.1,0c0.6,0,1.2,0.1,1.7,0.2c0.5,0.1,1,0.4,1.3,0.7
		c0.4,0.3,0.7,0.8,0.9,1.2c0.2,0.6,0.3,1.2,0.3,1.8c0,0.6-0.1,1.2-0.3,1.7c-0.2,0.5-0.5,0.9-0.9,1.2c-0.4,0.3-0.8,0.6-1.3,0.7
		C34.6,28,34,28.1,33.5,28z M32.8,26.2h0.3h0.4c0.3,0,0.5,0,0.8-0.1c0.2-0.1,0.4-0.2,0.6-0.4c0.2-0.2,0.3-0.4,0.4-0.7
		c0.1-0.3,0.1-0.7,0.1-1c0-0.6-0.1-1.2-0.5-1.7c-0.4-0.4-0.9-0.6-1.4-0.6h-0.4h-0.4V26.2z"/>
	
		<radialGradient id="SVGID_7_" cx="95.9921" cy="-859.4963" r="3.728" gradientTransform="matrix(1 0 0 -1 -54.14 -835.39)" gradientUnits="userSpaceOnUse">
		<stop  offset="0.57" style="stop-color:#130C0E"/>
		<stop  offset="0.8" style="stop-color:#130C0E"/>
		<stop  offset="1" style="stop-color:#130C0E"/>
	</radialGradient>
	<path class="st6" d="M40.3,20.6c0.2-0.1,0.4-0.2,0.6-0.2c0.3-0.1,0.6-0.1,0.9-0.1c0.4,0,0.7,0.1,1.1,0.2c0.3,0.1,0.5,0.3,0.6,0.6
		c0.1,0.4,0.3,0.9,0.5,1.5s0.4,1.1,0.5,1.8s0.3,1.2,0.5,1.8s0.3,1.1,0.4,1.5c-0.1,0.1-0.3,0.2-0.4,0.3c-0.2,0.1-0.5,0.1-0.7,0.1
		c-0.2,0-0.3,0-0.5,0c-0.1,0-0.2-0.1-0.3-0.2c-0.1-0.1-0.2-0.2-0.2-0.3c-0.1-0.1-0.1-0.2-0.1-0.4l-0.2-0.8h-2.2
		c-0.1,0.2-0.1,0.5-0.2,0.8s-0.1,0.5-0.2,0.8l-0.4,0.1c-0.2,0-0.3,0-0.5,0c-0.3,0-0.6,0-0.9-0.2c-0.2-0.1-0.3-0.4-0.3-0.6
		c0-0.1,0-0.2,0-0.3c0-0.1,0.1-0.2,0.1-0.4s0.1-0.5,0.2-0.8s0.2-0.7,0.3-1.1s0.2-0.8,0.4-1.2l0.4-1.1c0.1-0.4,0.2-0.7,0.3-1
		S40.3,20.7,40.3,20.6z M41.8,22.2l-0.4,1.2c-0.1,0.4-0.3,0.8-0.4,1.3h1.5c-0.1-0.4-0.2-0.9-0.4-1.3S42,22.5,41.8,22.2L41.8,22.2z"
		/>
	
		<radialGradient id="SVGID_8_" cx="103.7621" cy="-859.435" r="3.54" gradientTransform="matrix(1 0 0 -1 -54.14 -835.39)" gradientUnits="userSpaceOnUse">
		<stop  offset="0.57" style="stop-color:#130C0E"/>
		<stop  offset="0.8" style="stop-color:#130C0E"/>
		<stop  offset="1" style="stop-color:#130C0E"/>
	</radialGradient>
	<path class="st7" d="M48.6,25.4v2.4c-0.1,0-0.3,0.1-0.4,0.1h-0.6c-0.2,0-0.3,0-0.5,0c-0.1,0-0.2-0.1-0.4-0.2
		c-0.1-0.1-0.2-0.2-0.2-0.3c-0.1-0.2-0.1-0.3-0.1-0.5v-5.8c0-0.1,0-0.3,0.1-0.4c0.1-0.1,0.2-0.2,0.4-0.2c0.3-0.1,0.7-0.2,1-0.2
		c0.4,0,0.8-0.1,1.2-0.1c0.9-0.1,1.8,0.2,2.6,0.7c0.6,0.5,0.9,1.2,0.9,1.9c0,0.5-0.1,0.9-0.4,1.3c-0.2,0.3-0.6,0.6-0.9,0.8
		c0.3,0.4,0.6,0.8,0.9,1.1c0.3,0.3,0.5,0.6,0.7,1c-0.1,0.3-0.2,0.5-0.5,0.7c-0.2,0.2-0.5,0.2-0.7,0.2c-0.2,0-0.3,0-0.5-0.1
		c-0.1,0-0.2-0.1-0.3-0.2c-0.1-0.1-0.2-0.2-0.3-0.3c-0.1-0.1-0.2-0.2-0.2-0.3l-1-1.7L48.6,25.4z M49.4,23.8c0.3,0,0.5-0.1,0.7-0.2
		c0.2-0.2,0.3-0.4,0.3-0.7c0-0.3-0.1-0.5-0.3-0.7c-0.3-0.2-0.6-0.3-1-0.2h-0.3h-0.2v1.8L49.4,23.8z"/>
	
		<radialGradient id="SVGID_9_" cx="108.8118" cy="-862.225" r="1.1997" gradientTransform="matrix(1 0 0 -1 -54.14 -835.39)" gradientUnits="userSpaceOnUse">
		<stop  offset="0.57" style="stop-color:#130C0E"/>
		<stop  offset="0.8" style="stop-color:#130C0E"/>
		<stop  offset="1" style="stop-color:#130C0E"/>
	</radialGradient>
	<path class="st8" d="M53.5,26.8c0-0.3,0.1-0.6,0.3-0.9c0.5-0.5,1.3-0.5,1.7,0c0.2,0.2,0.3,0.5,0.3,0.9c0,0.3-0.1,0.6-0.3,0.9
		c-0.5,0.5-1.2,0.5-1.7,0C53.6,27.5,53.5,27.2,53.5,26.8z"/>
	
		<radialGradient id="SVGID_10_" cx="113.6726" cy="-859.445" r="3.2598" gradientTransform="matrix(1 0 0 -1 -54.14 -835.39)" gradientUnits="userSpaceOnUse">
		<stop  offset="0.57" style="stop-color:#130C0E"/>
		<stop  offset="0.8" style="stop-color:#130C0E"/>
		<stop  offset="1" style="stop-color:#130C0E"/>
	</radialGradient>
	<path class="st9" d="M58.1,27.9c-0.6,0-1.1-0.4-1.1-1c0,0,0-0.1,0-0.1v-6.4l0.4-0.1c0.2,0,0.4,0,0.6,0c0.2,0,0.3,0,0.5,0
		c0.1,0,0.3,0.1,0.4,0.2c0.1,0.1,0.2,0.2,0.2,0.3c0.1,0.2,0.1,0.3,0.1,0.5v4.9h2.8c0.1,0.1,0.1,0.2,0.2,0.4c0.1,0.2,0.1,0.3,0.1,0.5
		c0,0.3-0.1,0.5-0.2,0.7c-0.1,0.1-0.3,0.2-0.5,0.2L58.1,27.9z"/>
	
		<radialGradient id="SVGID_11_" cx="118.452" cy="-859.4612" r="2.7974" gradientTransform="matrix(1 0 0 -1 -54.14 -835.39)" gradientUnits="userSpaceOnUse">
		<stop  offset="0.57" style="stop-color:#130C0E"/>
		<stop  offset="0.8" style="stop-color:#130C0E"/>
		<stop  offset="1" style="stop-color:#130C0E"/>
	</radialGradient>
	<path class="st10" d="M65.4,27.8c-0.1,0-0.3,0.1-0.4,0.1h-0.6c-0.2,0-0.3,0-0.5,0c-0.1,0-0.3-0.1-0.4-0.2c-0.1-0.1-0.2-0.2-0.2-0.3
		c-0.1-0.2-0.1-0.3-0.1-0.5v-6.5l0.4-0.1c0.2,0,0.4,0,0.6,0c0.2,0,0.3,0,0.5,0c0.1,0,0.3,0.1,0.4,0.2c0.1,0.1,0.2,0.2,0.2,0.3
		c0.1,0.2,0.1,0.3,0.1,0.5V27.8z"/>
	
		<radialGradient id="SVGID_12_" cx="123.8521" cy="-859.525" r="3.28" gradientTransform="matrix(1 0 0 -1 -54.14 -835.39)" gradientUnits="userSpaceOnUse">
		<stop  offset="0.57" style="stop-color:#130C0E"/>
		<stop  offset="0.8" style="stop-color:#130C0E"/>
		<stop  offset="1" style="stop-color:#130C0E"/>
	</radialGradient>
	<path class="st11" d="M72.3,20.4c0.1,0.1,0.1,0.2,0.1,0.4c0,0.2,0.1,0.3,0.1,0.5c0,0.2-0.1,0.5-0.2,0.7c-0.1,0.1-0.3,0.2-0.5,0.2
		h-2.6v1.4h2.7c0.1,0.1,0.1,0.2,0.2,0.4c0,0.2,0.1,0.3,0.1,0.5c0,0.2,0,0.5-0.2,0.7c-0.1,0.1-0.3,0.2-0.5,0.2h-2.1v2.6
		c-0.1,0-0.3,0.1-0.4,0.1h-0.6c-0.2,0-0.3,0-0.5,0c-0.1,0-0.3-0.1-0.4-0.1c-0.1-0.1-0.2-0.2-0.2-0.3C67,27.2,67,27.1,67,26.9v-5.4
		c0-0.3,0.1-0.6,0.3-0.8c0.2-0.2,0.5-0.3,0.8-0.3L72.3,20.4z"/>
	
		<radialGradient id="SVGID_13_" cx="130.3821" cy="-859.5106" r="3.2775" gradientTransform="matrix(1 0 0 -1 -54.14 -835.39)" gradientUnits="userSpaceOnUse">
		<stop  offset="0.57" style="stop-color:#130C0E"/>
		<stop  offset="0.8" style="stop-color:#130C0E"/>
		<stop  offset="1" style="stop-color:#130C0E"/>
	</radialGradient>
	<path class="st12" d="M73.5,21.5c0-0.3,0.1-0.6,0.3-0.8c0.2-0.2,0.5-0.3,0.8-0.3h4.1c0.1,0.1,0.1,0.2,0.1,0.4
		c0,0.2,0.1,0.3,0.1,0.5c0,0.2,0,0.5-0.2,0.7c-0.1,0.1-0.3,0.2-0.5,0.2h-2.6v1.1h2.8c0.1,0.1,0.1,0.2,0.2,0.3c0,0.1,0.1,0.3,0.1,0.5
		c0,0.2,0,0.5-0.2,0.7c-0.1,0.1-0.3,0.2-0.5,0.2h-2.3v1.3h3.2c0.1,0.1,0.1,0.2,0.1,0.4c0,0.2,0.1,0.3,0.1,0.5c0,0.2-0.1,0.5-0.2,0.7
		c-0.1,0.1-0.3,0.2-0.5,0.2h-3.6c-0.6,0-1.1-0.4-1.1-1c0,0,0-0.1,0-0.1L73.5,21.5z"/>
</g>
</svg>
